# xmcd
#
# Track frame offsets:
#  150
#  15392
#  32612
#  49950
#  71787
#  95277
#  115632
#  137359
#  158539
#  184312
#  205057
#  232405
#  250060
#  266075
#  286402
#  311337
#  328647
#
# Disc length: 4680 seconds
#
# Revision: 0
# Processed by: cddbd v1.4PL0 Copyright (c) Steve Scherf et al.
# Submitted via: AltoMP3_Maker 3.0
#
DISCID=e9124611
DTITLE=Chig - Best II
DYEAR=1900
DGENRE=
TTITLE0=Tuchi nad gorodom vstali
TTITLE1=Pod zvezdami balkanskimi
TTITLE2=Na pole tanki groxotali
TTITLE3=Bombardirovshiki
TTITLE4=Fantom
TTITLE5=Gelty'e list'ya
TTITLE6=Letyat pereletny'e pticy
TTITLE7=Leningradskiye mosty
TTITLE8=Geltyi dogd
TTITLE9=Yest!
TTITLE10=Nashi lubimy'e
TTITLE11=Osen
TTITLE12=Prekrasnoye voskresenie
TTITLE13=Erogennaya zona
TTITLE14=Tanec damskoi razvedki
TTITLE15=Gav-gav
TTITLE16=Menuet
EXTD=
EXTT0=
EXTT1=
EXTT2=
EXTT3=
EXTT4=
EXTT5=
EXTT6=
EXTT7=
EXTT8=
EXTT9=
EXTT10=
EXTT11=
EXTT12=
EXTT13=
EXTT14=
EXTT15=
EXTT16=
PLAYORDER=
